<?xml version="1.0" encoding="UTF-8"?>
<svg id="Layer_1" data-name="Layer 1" xmlns="http://www.w3.org/2000/svg" xmlns:xlink="http://www.w3.org/1999/xlink" viewBox="0 0 474.2 161.31">
  <defs>
    <style>
      .cls-1 {
        fill: none;
      }

      .cls-2 {
        fill: #231f20;
      }

      .cls-3 {
        clip-path: url(#clippath);
      }
    </style>
    <clipPath id="clippath">
      <path class="cls-1" d="M81.1,161.08c44.42,0,80.42-36.01,80.42-80.42S125.52.23,81.1.23.67,36.24.67,80.65s36.01,80.42,80.43,80.42h0Z"/>
    </clipPath>
  </defs>
  <g class="cls-3">
    <path class="cls-2" d="M62.28,2.18c-.19.05-.38.12-.57.18l.95-.24c-.13.03-.25.02-.38.05h0ZM43.56,9.16c-.34.18-.63.39-.92.59l1.93-1.02c-.34.12-.67.24-1.01.42h0ZM100.91,2.43c-.18-.05-.38-.07-.57-.1l.9.22c-.12-.03-.22-.09-.34-.12h0ZM62.66,2.13c1.12-.22,2.23-.24,3.36-.1l-.31,2.27c-.81-.09-1.88-.03-2.47.12-1.39.35-1.79.98-1.61,1.69.11.45.53.76,1.89.72,3.02-.07,4.08.89,4.47,2.46.69,2.76-1.26,4.36-3.75,4.98-1.17.29-2.44.33-3.63.23l.18-2.36c.73.04,1.91.04,2.71-.16.91-.23,1.81-.64,1.56-1.69-.26-1.03-1.59-.81-3-.86-1.41-.06-2.9-.41-3.44-2.58-.54-2.19,1.19-3.79,3.09-4.47l-8.2,2.02,19.89,45.03L70.07.3l-7.41,1.83h0ZM48.1,17.83c1.53-.81,2.23-2.49,1.05-4.73-1.18-2.24-2.96-2.62-4.49-1.81-1.52.79-2.22,2.48-1.04,4.72,1.17,2.23,2.96,2.62,4.48,1.83h0ZM44.57,8.74c3.08-1.09,5.91.25,7.32,2.93,1.55,2.97.8,6.46-2.67,8.29-3.48,1.82-6.79.46-8.34-2.51-1.4-2.67-.9-5.77,1.75-7.69l-6.57,3.45,30.08,38.97L51.17,5.27l-6.6,3.46h0ZM101.25,2.55c1.1.32,2.1.83,3.04,1.48l-1.33,1.86c-.68-.46-1.65-.9-2.25-1.05-1.39-.34-2.03.03-2.21.75-.11.45.12.92,1.35,1.51,2.7,1.35,3.2,2.68,2.82,4.26-.68,2.76-3.15,3.27-5.64,2.66-1.16-.28-2.31-.84-3.32-1.48l1.26-2c.63.38,1.67.93,2.47,1.12.91.22,1.9.28,2.16-.78.25-1.03-1.04-1.45-2.25-2.16-1.22-.71-2.38-1.71-1.85-3.88.54-2.2,2.83-2.81,4.84-2.51l-8.21-2.03-3.33,49.12L108.69,4.38l-7.44-1.83h0ZM84.01,6.07c0-1.6-1.3-2.9-2.91-2.9s-2.91,1.3-2.91,2.9,1.3,2.91,2.91,2.91,2.91-1.3,2.91-2.91h0ZM89.63,0l-8.53,48.49L72.57,0h17.06ZM161.14,90.93c.02-.2.03-.4.03-.6l-.12.96c.02-.12.07-.23.08-.36h0ZM118.63,9.16c-.34-.18-.67-.3-1-.42l1.91,1c-.29-.21-.57-.41-.91-.59h0ZM94.6,160.41l9.48-2.2.05-.16-9.53,2.35h0ZM98.95,156.48l-.49-1.94c-1.57.36-2.91.64-4.31.87l-.37-2.26c1.32-.23,2.64-.5,4.13-.85l-.5-1.98c-1.59.37-3.01.65-4.44.89l-.42-2.51c2.33-.39,4.64-.9,6.91-1.54l.88,3.01c1.24-.34,2.47-.73,3.69-1.14l.44-1.68-15.66-35.47,3.33,49.12,2.47-.61-.48-2.94c1.55-.26,3.1-.57,4.83-.97h0ZM102.02,156.44l.15-.04,1.26-4.74c-.83.26-1.71.52-2.51.74l1.1,4.04h0ZM106.23,151.35l-2.1,6.7,4.56-1.12-2.46-5.57h0ZM117.23,153.03l2.84-1.5-.1-.18-2.84,1.49.1.19h0ZM131.13,144.2l6.94-6.14-.06-.06-6.93,6.14.05.06h0ZM146.71,127.93l1.84-2.64-.17-.11-1.82,2.64.16.12h0ZM154.94,113.66l3.28-8.68-.09-.03-3.29,8.67.09.04h0ZM161.7,73.99l-.17-.03.33,2.7-.16-2.67h0ZM161.01,68.26l-.54-3.11h-.01s.39,3.18.39,3.18l.16-.07h0ZM157.27,53.48l-1.13-3-.21.08,1.14,2.99.2-.07h0ZM134.36,19.8l-2.4-2.03-.09.11,2.35,2.08.14-.16h0ZM96.05,109.14l14.98,46.9,6.11-3.2-5.21-10.47c.81-.41,1.64-.85,2.43-1.29l5.62,10.26,6.16-3.23-30.08-38.97h0ZM102.43,104.73l25.76,41.95,2.88-2.55-1.8-2.27c.77-.61,1.53-1.23,2.28-1.87l-5.75-6.79c.69-.58,1.39-1.22,2.05-1.83l6.02,6.56c.72-.65,1.41-1.32,2.09-2l2.04,2.06,2.96-2.62-38.53-30.64h0ZM107.57,98.93l35.05,34.56,3.92-5.68-9.47-6.85c.52-.73,1.06-1.52,1.55-2.27l9.74,6.48,3.95-5.71-44.74-20.53h0ZM111.18,92.06l42.3,25.17,1.37-3.61-2.64-1.18c.4-.89.79-1.8,1.15-2.72l-8.24-3.33c.34-.84.67-1.73.97-2.57l8.38,3c.32-.91.64-1.83.92-2.74l2.75.87,1.39-3.68-48.35-9.21h0ZM113.04,84.53l47.1,14.31.92-7.56c-.19,1.13-.57,2.18-1.09,3.19l-2.02-1.1c.37-.72.7-1.74.77-2.36.17-1.42-.28-2.01-1-2.09-.46-.06-.9.22-1.34,1.52-1.01,2.84-2.28,3.49-3.88,3.3-2.82-.34-3.63-2.74-3.33-5.28.14-1.19.55-2.4,1.07-3.47l2.14,1c-.3.67-.71,1.77-.81,2.58-.11.93-.05,1.92,1.03,2.05,1.06.13,1.32-1.2,1.87-2.5.56-1.28,1.41-2.56,3.64-2.29,2.23.27,3.13,2.45,3.07,4.47l1.02-8.41-49.15,2.62h0ZM152.54,72.15l8.99,1.81-.68-5.63-8.31,3.79v.03h0ZM113.04,76.78l49.15,2.62-.33-2.74.02.33-12.09-2.85c-.11-1.08-.22-2.15-.38-3.23l11.06-5.77-.33-2.68-47.1,14.31h0ZM111.18,69.24l48.35-9.21-2.46-6.48-11,3.91c-.3-.84-.64-1.73-.98-2.57l10.84-4.33-2.46-6.48-42.3,25.16h0ZM140.85,35.91c-1.32.91-1.65,2.72-.74,4.04.91,1.32,2.72,1.66,4.04.74,1.32-.91,1.65-2.72.74-4.04-.91-1.32-2.71-1.65-4.04-.74h0ZM107.57,62.38l35.05-34.57,9.69,14.04-44.74,20.53h0ZM102.43,56.57l38.53-30.63-6.74-5.98-5.95,6.84c1.25,1.1,2.47,2.24,3.63,3.42l-1.81,1.8c-1.78-1.8-3.65-3.48-5.62-5.07l7.39-9.06-3.67-3.25-25.76,41.94h0ZM119.54,9.74c2.66,1.92,3.16,5.02,1.76,7.69-1.56,2.97-4.87,4.33-8.33,2.51-3.48-1.83-4.24-5.32-2.68-8.29,1.41-2.68,4.25-4.02,7.34-2.92l-6.61-3.47-14.98,46.9,30.08-38.97-6.59-3.46h0ZM113.04,13.09c-1.18,2.24-.48,3.93,1.04,4.72,1.53.8,3.31.42,4.49-1.81,1.17-2.25.48-3.93-1.05-4.73-1.52-.8-3.29-.42-4.47,1.83h0ZM5.47,108.84c.08.2.17.4.27.6l-.38-1c.04.14.05.27.11.41h0ZM16.13,128.83l1.91,2.46-1.8-2.61-.11.15h0ZM12.87,124.09l.17-.05-1.68-2.43,1.51,2.48h0ZM27.86,141.48l2.42,2.08.08-.1-2.39-2.12-.12.13h0ZM43.95,152.52l2.86,1.4.06-.13-2.81-1.48-.11.21h0ZM60.24,158.81l3.13.78.05-.21-3.13-.77-.06.21h0ZM51.01,92.06L2.66,101.28l2.71,7.15c-.35-1.07-.5-2.16-.5-3.29l2.29.04c0,.81.2,1.86.42,2.44.51,1.34,1.18,1.65,1.87,1.38.43-.16.69-.61.48-1.97-.43-2.99.39-4.15,1.9-4.73,2.66-1.01,4.48.72,5.4,3.12.43,1.12.62,2.38.67,3.57l-2.37.11c-.05-.73-.19-1.91-.48-2.67-.33-.87-.85-1.73-1.86-1.34-1,.38-.61,1.68-.5,3.08.11,1.41-.06,2.93-2.14,3.72-2.09.8-3.88-.69-4.78-2.47l2.96,7.8,42.31-25.17h0ZM21.82,121.46l-8.79,2.58,3.21,4.64,5.59-7.2-.02-.02h0ZM54.62,98.93l-44.75,20.53,1.48,2.15-.06-.1,12.03-3.11c.59.9,1.2,1.8,1.84,2.67l-7.1,10.24-.02-.03,1.52,2.21,35.05-34.56h0ZM59.76,104.73l-38.54,30.64,6.75,5.98,5.99-6.85c-1.25-1.1-2.46-2.23-3.64-3.41l1.81-1.8c1.78,1.8,3.66,3.49,5.62,5.07l-7.4,9.1,3.63,3.21,25.77-41.95h0ZM66.15,109.14l-30.08,38.97,7.99,4.19,4.18-8.09c-1.48-.76-2.93-1.57-4.35-2.44l1.32-2.18c2.16,1.31,4.39,2.5,6.67,3.58l-5.01,10.61,4.3,2.26,14.98-46.9h0ZM73.4,111.89l-19.89,45.03,6.78,1.68,3.03-11.28c.87.23,1.8.45,2.68.65l-2.59,11.4,6.65,1.64,3.33-49.12h0ZM84.01,155.25c0-1.61-1.3-2.91-2.91-2.91s-2.91,1.3-2.91,2.91,1.3,2.9,2.91,2.9,2.91-1.29,2.91-2.9h0ZM89.63,161.31h-17.06l8.53-48.48,8.53,48.48h0ZM22.09,39.95c.91-1.32.58-3.13-.74-4.04-1.32-.91-3.13-.58-4.04.74-.91,1.32-.58,3.13.74,4.04,1.32.92,3.13.58,4.04-.74h0ZM54.62,62.38L9.88,41.85l9.69-14.04,35.05,34.57h0ZM31.92,16.46l-2.36,1.86.12.14,2.25-1.99h0ZM25.89,21.56l-2.63,2.58h0s2.84-2.51,2.84-2.51l-.21-.07h0ZM59.76,56.57L33.99,14.63l-2.07,1.83,7.08,9.52c-.81.62-1.61,1.27-2.39,1.92l-8.38-2.77,5.29,5.53c-.6.58-1.19,1.15-1.77,1.76l-8.5-8.28-2.03,1.8,38.54,30.63h0ZM29.67,18.46l-3.58,3.17,8.47,2.83-4.9-6h0ZM6.08,50.37l-1.12,2.95.18.16,1.18-3.1h-.24ZM.73,70.9l-.48,4.85h.19s.59-4.83.59-4.83l-.3-.02h0ZM.39,85.78l1.1,9.22.1-.02-1.12-9.21h-.08ZM7.91,52.91l3.73,2.86c.3-.85.62-1.67.95-2.51l-4.67-.38v.03h-.01ZM51.01,69.24L8.71,44.08l-2.39,6.29,12.61.34c-.46.95-.9,1.92-1.32,2.89l-2.7-.12c-.51,1.24-.99,2.5-1.43,3.78l2.11,1.7c-.32.97-.62,1.95-.9,2.94l-9.55-8.43-2.49,6.55,48.36,9.21h0ZM4.89,69.91c-.94-.11-1.54.4-1.67,1.59-.05.43-.06.86-.11,1.34l2.85.29c.04-.4.09-.87.14-1.28.08-.71-.06-1.8-1.21-1.93h0ZM1.03,70.92l.21.02c.28-2.29,1.4-4.18,3.49-4.02,1.71.12,2.79,1.27,2.83,3.1h.06c.45-.51.85-.72,1.57-1.13,1.13-.65,4.26-1.74,4.26-1.74-.26,1.06-.42,2.05-.57,3.09,0,0-1.83.5-2.68.81-1.04.37-2,.99-2.15,1.78-.03.16-.04.34-.05.44l4.46.44c-.09.91-.16,1.82-.22,2.74l-11.8-.68-.44,3.64,49.16-2.62L2.06,62.47l-1.03,8.45h0ZM0,81.91l49.16,2.62L2.06,98.85l-.47-3.86,2.85-.51c-.17-.94-.32-1.9-.46-2.85l8.82-1.24c-.13-.89-.25-1.84-.34-2.73l-8.85.89c-.1-.99-.19-1.97-.25-2.95l-2.88.18-.47-3.87h0Z"/>
    <path class="cls-2" d="M92.13,91.68c-.91.93-2.17,1.5-3.56,1.5h-2.93c-1.64,0-3.09.79-4,2.02h-1.08c-.91-1.22-2.36-2.02-4-2.02h-2.92c-2.75,0-4.98-2.23-4.98-4.98v-19.99l23.48,23.47h0Z"/>
    <path class="cls-2" d="M92.28,69.48h-22.36v18.65c0,2.04,1.66,3.7,3.71,3.7h2.92c1.78,0,3.36.75,4.5,1.94h.08c1.14-1.19,2.72-1.94,4.5-1.94h2.93c2.05,0,3.71-1.67,3.71-3.7v-18.65h0ZM94.85,88.13c0,3.46-2.81,6.27-6.28,6.27h-2.93c-1.54,0-2.85.94-3.42,2.27h-2.25c-.56-1.33-1.88-2.27-3.42-2.27h-2.92c-3.47,0-6.28-2.81-6.28-6.27v-21.23h27.5v21.23h0Z"/>
  </g>
  <path class="cls-2" d="M384.86,66.42c0,2.34,1.07,3.34,2.9,3.34,1.52,0,2.96-.94,4.81-3.15l.89,1.77c-1.9,3.41-5.69,5.75-9.17,5.75-4.3,0-7.14-2.41-7.14-7.84v-15.16h-3.34v-1.66c3.8-1.57,8.09-6.19,9.22-9.72h1.84v7.9h8.27l-.93,3.48h-7.34v15.29h0ZM349.33,67.05c0,3.98,1.08,4.36,3.29,4.36h.63v2.02h-16v-2.02h.9c3.23,0,3.47-1.27,3.47-4.62v-27.62c0-1.82-.32-2.27-2.02-2.84l-1.83-.63v-1.46l10.05-3.1h1.51v20.6c3.54-2.46,8.08-4.8,11.37-4.8,4.63,0,6.9,3.72,6.9,11.18v8.35c0,3.73.43,4.93,2.84,4.93h.62v2.02h-14.92v-2.02h.51c2.65,0,3.22-1.02,3.22-4.62v-9.54c0-3.41-1.58-5.56-4.11-5.56-1.72,0-4.24.94-6.45,2.4v12.96h0ZM335.62,67.36c-2.91,4.42-7.34,6.76-12.89,6.76-7.71,0-13.28-5.25-13.28-12.52,0-8.28,7.15-14.66,16.37-14.66,5.44,0,9.55,2.27,9.55,5.37,0,1.89-1.26,3.16-3.23,3.16-4.41,0-5.35-5.63-9.02-5.63-3.16,0-5.32,3.85-5.32,9.54,0,6.83,3.24,11.44,7.91,11.44,2.85,0,5.5-1.45,8.09-4.49l1.84,1.01h0ZM296.94,57.76c-.06-4.87-1.77-7.84-4.5-7.84-2.59,0-4.92,3.34-4.49,7.84h8.98ZM305.09,66.1c-3.53,4.98-8.65,8.02-13.52,8.02-6.89,0-11.56-5.31-11.56-12.95,0-8.34,5.63-14.22,13.52-14.22,3.36,0,6.02,1.08,7.97,3.04,3.73,3.73,1.96,7.27,4.18,8.41v1.83h-17.51c.51,5.25,4.04,9.23,7.78,9.23,2.33,0,4.61-1.32,7.72-4.56l1.44,1.21h0ZM271.6,73.42h-17.58v-2.02h.44c2.59,0,3.54-1.14,3.54-4.42v-10.31c0-2.84-.37-3.48-2.27-4.24l-1.71-.7v-1.57l10.36-3.92h1.34v7.07h.12c2.34-4.55,3.35-6.38,5.5-6.38.44,0,.95.07,1.26.19l4.99,1.84c-.76,2.66-1.76,4.92-3.02,6.7-1.97-.76-4.31-1.58-5.14-1.58-1.26,0-2.32.89-3.72,2.84v10.24c0,3.04.95,4.23,4.24,4.23h1.64v2.02h0ZM242.52,66.42c0,2.34,1.06,3.34,2.9,3.34,1.51,0,2.97-.94,4.8-3.15l.89,1.77c-1.9,3.41-5.69,5.75-9.17,5.75-4.29,0-7.15-2.41-7.15-7.84v-15.16h-3.34v-1.66c3.79-1.57,8.1-6.19,9.23-9.72h1.84v7.9h8.27l-.94,3.48h-7.32v15.29h0ZM216.1,34.12h16.38v2.46h-.45c-5.05,0-5.81,2.21-5.81,5.25v15.73c0,14.1-10.24,16.75-17.75,16.75-11.38,0-18.59-4.92-18.59-14.59v-18.83c0-3.17-.88-4.3-4.43-4.3h-1.07v-2.46h19.78v2.46h-1.06c-2.67,0-4.49,1.2-4.49,4.3v18.83c0,7.71,5.67,10.36,11.42,10.36,8.29,0,12.4-4.67,12.4-11.63v-15.36c0-4.49-1.27-6.51-5.19-6.51h-1.14v-2.46h0Z"/>
  <path class="cls-2" d="M456.71,126.53l-1.26,2.78c-3.35,7.33-6.69,3.41-9.6,6.32-.57.57-.95,1.64-.95,2.65,0,2.08,1.71,3.6,3.97,3.6s4.17-1.52,5.75-4.67l14.14-28.79c1.77-3.6,2.59-4.36,5.43-4.99v-2.02h-11.74v2.02c3.79.06,4.61,2.21,3.28,4.92l-4.8,9.72-5.24-10.86c-1.2-2.53-.69-3.79,2.59-3.79v-2.02h-16.1v2.02c2.72,0,3.79,1.2,6,5.75l8.53,17.36h0ZM429.83,120.18c0,2.34,1.06,3.34,2.9,3.34,1.51,0,2.95-.95,4.8-3.16l.88,1.78c-1.89,3.4-5.69,5.74-9.17,5.74-4.29,0-7.14-2.41-7.14-7.83v-15.18h-3.35v-1.64c3.8-1.58,8.09-6.19,9.23-9.73h1.85v7.9h8.27l-.95,3.47h-7.32v15.3h0ZM412.56,89.96c0,2.53-2.39,4.3-5,4.3-2.9,0-5.05-1.84-5.05-4.3,0-2.27,2.4-4.3,5.05-4.3,2.91,0,5,1.9,5,4.3h0ZM415.53,127.19h-15.81v-2.03h.7c2.59,0,3.54-1.14,3.54-4.42v-12.13c0-1.65-.36-2.1-2.14-2.72l-2.1-.76v-1.51l10.81-3.6h1.13v21.17c0,2.59,1.08,3.97,3.86,3.97v2.03h0ZM375.84,119.73h2.02c1.07,3.54,3.86,5.43,6.57,5.43,1.77,0,3.28-1.33,3.28-2.9,0-4.36-11.87-5.88-11.87-13.53,0-4.81,3.98-8.03,9.91-8.03,2.41,0,4.44.38,7.09,1.33l.12,6.76h-2.03c-1.13-3.48-3.22-5.37-5.94-5.37-1.64,0-2.9,1.01-2.9,2.4,0,5.18,12.45,5.38,12.45,14.04,0,4.67-3.35,7.96-8.22,7.96-4.37,0-5.82-.89-6.7-.89-.37,0-.75.26-1.26.82h-1.83l-.69-8.02h0ZM365.84,127.19h-17.56v-2.03h.44c2.59,0,3.53-1.14,3.53-4.42v-10.31c0-2.84-.38-3.47-2.27-4.23l-1.7-.7v-1.58l10.35-3.91h1.33v7.07h.14c2.33-4.55,3.33-6.39,5.49-6.39.45,0,.95.07,1.26.19l4.99,1.84c-.75,2.65-1.76,4.92-3.02,6.69-1.97-.76-4.3-1.57-5.13-1.57-1.26,0-2.34.88-3.72,2.84v10.23c0,3.04.95,4.24,4.24,4.24h1.63v2.03h0ZM336.2,111.51c-.06-4.86-1.77-7.84-4.49-7.84s-4.93,3.35-4.49,7.84h8.98ZM344.35,119.86c-3.54,4.98-8.66,8.02-13.52,8.02-6.91,0-11.57-5.31-11.57-12.95,0-8.35,5.62-14.23,13.52-14.23,3.36,0,5.99,1.08,7.96,3.04,3.74,3.73,1.96,7.27,4.18,8.41v1.82h-17.51c.51,5.25,4.04,9.23,7.77,9.23,2.34,0,4.61-1.32,7.71-4.55l1.46,1.21h0ZM286.46,101.4h16.05v2.03h-2.21c-1.34,0-1.89,1.19-.82,3.53l5.61,12.59,4.93-11.13c1.46-3.29.7-4.55-3.72-4.99v-2.03h12.57v2.03c-3.29.31-4.1,1.14-5.31,3.78l-9.03,20.42h-3.79l-9.42-20.28c-1.19-2.6-2.1-3.61-4.87-3.92v-2.03h0ZM282.79,89.96c0,2.53-2.41,4.3-4.99,4.3-2.91,0-5.06-1.84-5.06-4.3,0-2.27,2.4-4.3,5.06-4.3,2.89,0,4.99,1.9,4.99,4.3h0ZM285.76,127.19h-15.8v-2.03h.7c2.59,0,3.54-1.14,3.54-4.42v-12.13c0-1.65-.38-2.1-2.15-2.72l-2.08-.76v-1.51l10.8-3.6h1.15v21.17c0,2.59,1.06,3.97,3.84,3.97v2.03h0ZM262.19,121.44c0,3.09,1.13,3.72,3.6,3.72v2.03h-14.92v-2.03c2.59-.18,3.61-1.96,3.61-7.14v-5.5c0-5.06-1.39-7.02-3.91-7.02-1.96,0-4.05.95-6.71,2.78v12.83c0,2.84,1.21,4.04,3.73,4.04h.57v2.03h-15.99v-2.03h.37c2.66,0,3.6-1.14,3.6-4.42v-12.32c0-1.39-.76-2.21-2.97-2.84l-1.31-.38v-1.52l10.8-3.66h1.2v5.62c4.61-3.03,8.66-4.93,11.69-4.93,4.62,0,6.65,3.3,6.65,10.87v9.87h0ZM216.11,87.87h16.37v2.46h-.45c-5.05,0-5.81,2.21-5.81,5.25v15.74c0,14.09-10.24,16.74-17.76,16.74-11.38,0-18.58-4.92-18.58-14.59v-18.84c0-3.15-.88-4.3-4.43-4.3h-1.07v-2.46h19.79v2.46h-1.08c-2.66,0-4.5,1.2-4.5,4.3v18.84c0,7.71,5.7,10.36,11.44,10.36,8.29,0,12.39-4.67,12.39-11.63v-15.35c0-4.48-1.27-6.51-5.19-6.51h-1.14v-2.46h0Z"/>
</svg>